{"title":"Two and a Half Men S09E09 HDTV XviD-ASAP[Arnarcool]","uid":6820311,"size":183494026,"categoryP":"video","categoryS":"tv_shows","magnet":"?xt=urn:btih:e8fa7ebdd90b28719c675e520a538774f9966fae&amp;dn=Two+and+a+Half+Men+S09E09+HDTV+XviD-ASAP%5BArnarcool%5D&amp;tr=udp%3A%2F%2Ftracker.openbittorrent.com%3A80&amp;tr=udp%3A%2F%2Fopen.demonii.com%3A1337&amp;tr=udp%3A%2F%2Ftracker.coppersurfer.tk%3A6969&amp;tr=udp%3A%2F%2Fexodus.desync.com%3A6969","seeders":1,"leechers":0,"uploader":"TvFreak","files":-1,"time":1321368724,"description":"Sorry for late release.\n\n\n\n\nSCREENSHOTS:\n &lt;a href=&quot;\nhttp://image.bayimg.com/aakihaadp.jpg&quot; rel=&quot;nofollow&quot; target=&quot;_NEW&quot;&gt;\nhttp://image.bayimg.com/aakihaadp.jpg&lt;/a&gt;\n &lt;a href=&quot;\nhttp://image.bayimg.com/aakiiaadp.jpg&quot; rel=&quot;nofollow&quot; target=&quot;_NEW&quot;&gt;\nhttp://image.bayimg.com/aakiiaadp.jpg&lt;/a&gt;\n &lt;a href=&quot;\nhttp://image.bayimg.com/aakijaadp.jpg&quot; rel=&quot;nofollow&quot; target=&quot;_NEW&quot;&gt;\nhttp://image.bayimg.com/aakijaadp.jpg&lt;/a&gt;\n\n\nINFO:\n\nFormat                           : AVI\nFormat/Info                      : Audio Video Interleave\nFile size                        : 175 MiB\nDuration                         : 21mn 10s\nOverall bit rate mode            : Variable\nOverall bit rate                 : 1 156 Kbps\nWriting application              : Some super fast AVI muxer \n\nVideo\nID                               : 0\nFormat                           : MPEG-4 Visual\nFormat profile                   : Advanced Simple@L5\nFormat settings, BVOP            : 2\nFormat settings, QPel            : No\nFormat settings, GMC             : No warppoints\nFormat settings, Matrix          : Default (H.263)\nCodec ID                         : XVID\nCodec ID/Hint                    : XviD\nDuration                         : 21mn 10s\nBit rate                         : 988 Kbps\nWidth                            : 624 pixels\nHeight                           : 352 pixels\nDisplay aspect ratio             : 16:9\nFrame rate                       : 23.976 fps\nColor space                      : YUV\nChroma subsampling               : 4:2:0\nBit depth                        : 8 bits\nScan type                        : Progressive\nCompression mode                 : Lossy\nBits/(Pixel*Frame)               : 0.188\nStream size                      : 150 MiB (86%)\nWriting library                  : XviD 64\n\nAudio\nID                               : 1\nFormat                           : MPEG Audio\nFormat version                   : Version 1\nFormat profile                   : Layer 3\nCodec ID                         : 55\nCodec ID/Hint                    : MP3\nDuration                         : 21mn 10s\nBit rate mode                    : Variable\nBit rate                         : 155 Kbps\nChannel(s)                       : 2 channels\nSampling rate                    : 48.0 KHz\nCompression mode                 : Lossy\nStream size                      : 23.4 MiB (13%)\nAlignment                        : Aligned on interleaves\nInterleave, duration             : 24 ms (0.58 video frame)\nInterleave, preload duration     : 23 ms\n\n\n\n","torrent":{"xt":"urn:btih:e8fa7ebdd90b28719c675e520a538774f9966fae","amp;dn":"Two+and+a+Half+Men+S09E09+HDTV+XviD-ASAP%5BArnarcool%5D","amp;tr":["udp%3A%2F%2Ftracker.openbittorrent.com%3A80","udp%3A%2F%2Fopen.demonii.com%3A1337","udp%3A%2F%2Ftracker.coppersurfer.tk%3A6969","udp%3A%2F%2Fexodus.desync.com%3A6969"],"infoHash":"e8fa7ebdd90b28719c675e520a538774f9966fae","infoHashBuffer":{"type":"Buffer","data":[232,250,126,189,217,11,40,113,156,103,94,82,10,83,135,116,249,150,111,174]},"announce":[],"urlList":[]}}